<mxfile host="app.diagrams.net" agent="Mozilla/5.0 (Windows NT 10.0; Win64; x64) AppleWebKit/537.36 (KHTML, like Gecko) Chrome/130.0.0.0 Safari/537.36" version="24.8.3">
  <diagram name="Page-1" id="13e1069c-82ec-6db2-03f1-153e76fe0fe0">
    <mxGraphModel dx="1574" dy="819" grid="1" gridSize="10" guides="1" tooltips="1" connect="1" arrows="1" fold="1" page="1" pageScale="1" pageWidth="1100" pageHeight="850" background="none" math="0" shadow="0">
      <root>
        <mxCell id="0" />
        <mxCell id="1" parent="0" />
        <mxCell id="9nBHPdEDhlCnkr8sdzN--1" value="View" style="shape=umlLifeline;perimeter=lifelinePerimeter;whiteSpace=wrap;html=1;container=1;collapsible=0;recursiveResize=0;outlineConnect=0;rounded=1;shadow=0;comic=0;labelBackgroundColor=none;strokeWidth=1;fontFamily=Verdana;fontSize=12;align=center;" vertex="1" parent="1">
          <mxGeometry x="200" y="80" width="100" height="480" as="geometry" />
        </mxCell>
        <mxCell id="9nBHPdEDhlCnkr8sdzN--2" value="" style="html=1;points=[];perimeter=orthogonalPerimeter;rounded=0;shadow=0;comic=0;labelBackgroundColor=none;strokeWidth=1;fontFamily=Verdana;fontSize=12;align=center;" vertex="1" parent="9nBHPdEDhlCnkr8sdzN--1">
          <mxGeometry x="45" y="100" width="10" height="380" as="geometry" />
        </mxCell>
        <mxCell id="9nBHPdEDhlCnkr8sdzN--3" value="TarefaController " style="shape=umlLifeline;perimeter=lifelinePerimeter;whiteSpace=wrap;html=1;container=1;collapsible=0;recursiveResize=0;outlineConnect=0;rounded=1;shadow=0;comic=0;labelBackgroundColor=none;strokeWidth=1;fontFamily=Verdana;fontSize=12;align=center;" vertex="1" parent="1">
          <mxGeometry x="400" y="80" width="110" height="440" as="geometry" />
        </mxCell>
        <mxCell id="9nBHPdEDhlCnkr8sdzN--4" value="" style="html=1;points=[];perimeter=orthogonalPerimeter;rounded=0;shadow=0;comic=0;labelBackgroundColor=none;strokeWidth=1;fontFamily=Verdana;fontSize=12;align=center;" vertex="1" parent="9nBHPdEDhlCnkr8sdzN--3">
          <mxGeometry x="50" y="120" width="10" height="320" as="geometry" />
        </mxCell>
        <mxCell id="9nBHPdEDhlCnkr8sdzN--5" value="TarefaModel " style="shape=umlLifeline;perimeter=lifelinePerimeter;whiteSpace=wrap;html=1;container=1;collapsible=0;recursiveResize=0;outlineConnect=0;rounded=1;shadow=0;comic=0;labelBackgroundColor=none;strokeWidth=1;fontFamily=Verdana;fontSize=12;align=center;" vertex="1" parent="1">
          <mxGeometry x="610" y="80" width="100" height="410" as="geometry" />
        </mxCell>
        <mxCell id="9nBHPdEDhlCnkr8sdzN--19" value="" style="html=1;points=[];perimeter=orthogonalPerimeter;rounded=0;shadow=0;comic=0;labelBackgroundColor=none;strokeWidth=1;fontFamily=Verdana;fontSize=12;align=center;" vertex="1" parent="9nBHPdEDhlCnkr8sdzN--5">
          <mxGeometry x="45" y="140" width="10" height="270" as="geometry" />
        </mxCell>
        <mxCell id="9nBHPdEDhlCnkr8sdzN--6" value="Database " style="shape=umlLifeline;perimeter=lifelinePerimeter;whiteSpace=wrap;html=1;container=1;collapsible=0;recursiveResize=0;outlineConnect=0;rounded=1;shadow=0;comic=0;labelBackgroundColor=none;strokeWidth=1;fontFamily=Verdana;fontSize=12;align=center;" vertex="1" parent="1">
          <mxGeometry x="980" y="80" width="100" height="380" as="geometry" />
        </mxCell>
        <mxCell id="9nBHPdEDhlCnkr8sdzN--7" value="" style="html=1;points=[];perimeter=orthogonalPerimeter;rounded=0;shadow=0;comic=0;labelBackgroundColor=none;strokeWidth=1;fontFamily=Verdana;fontSize=12;align=center;" vertex="1" parent="9nBHPdEDhlCnkr8sdzN--6">
          <mxGeometry x="45" y="150" width="10" height="230" as="geometry" />
        </mxCell>
        <mxCell id="9nBHPdEDhlCnkr8sdzN--23" value="Insert()" style="html=1;verticalAlign=bottom;endArrow=block;labelBackgroundColor=none;fontFamily=Verdana;fontSize=12;edgeStyle=elbowEdgeStyle;elbow=vertical;exitX=0.985;exitY=0.053;exitDx=0;exitDy=0;exitPerimeter=0;" edge="1" parent="9nBHPdEDhlCnkr8sdzN--6">
          <mxGeometry x="0.1807" y="6" relative="1" as="geometry">
            <mxPoint x="-315.0000000000001" y="159.99999999999994" as="sourcePoint" />
            <mxPoint x="49.649999999999636" y="160.44" as="targetPoint" />
            <Array as="points" />
            <mxPoint as="offset" />
          </mxGeometry>
        </mxCell>
        <mxCell id="9nBHPdEDhlCnkr8sdzN--9" value="User" style="shape=umlLifeline;perimeter=lifelinePerimeter;whiteSpace=wrap;html=1;container=1;collapsible=0;recursiveResize=0;outlineConnect=0;rounded=1;shadow=0;comic=0;labelBackgroundColor=none;strokeWidth=1;fontFamily=Verdana;fontSize=12;align=center;" vertex="1" parent="1">
          <mxGeometry x="30" y="80" width="100" height="480" as="geometry" />
        </mxCell>
        <mxCell id="9nBHPdEDhlCnkr8sdzN--10" value="" style="html=1;points=[];perimeter=orthogonalPerimeter;rounded=0;shadow=0;comic=0;labelBackgroundColor=none;strokeWidth=1;fontFamily=Verdana;fontSize=12;align=center;" vertex="1" parent="9nBHPdEDhlCnkr8sdzN--9">
          <mxGeometry x="45" y="100" width="10" height="380" as="geometry" />
        </mxCell>
        <mxCell id="9nBHPdEDhlCnkr8sdzN--20" value="SalvarTarefa()" style="html=1;verticalAlign=bottom;endArrow=block;labelBackgroundColor=none;fontFamily=Verdana;fontSize=12;edgeStyle=elbowEdgeStyle;elbow=vertical;" edge="1" parent="1" source="9nBHPdEDhlCnkr8sdzN--3" target="9nBHPdEDhlCnkr8sdzN--5">
          <mxGeometry relative="1" as="geometry">
            <mxPoint x="510" y="220" as="sourcePoint" />
            <Array as="points">
              <mxPoint x="580" y="230" />
              <mxPoint x="600" y="240" />
            </Array>
          </mxGeometry>
        </mxCell>
        <mxCell id="9nBHPdEDhlCnkr8sdzN--24" value="Iniciar Dia" style="html=1;verticalAlign=bottom;endArrow=block;entryX=0;entryY=0;labelBackgroundColor=none;fontFamily=Verdana;fontSize=12;edgeStyle=elbowEdgeStyle;elbow=vertical;" edge="1" parent="1" source="9nBHPdEDhlCnkr8sdzN--10" target="9nBHPdEDhlCnkr8sdzN--2">
          <mxGeometry relative="1" as="geometry">
            <mxPoint x="220" y="190" as="sourcePoint" />
          </mxGeometry>
        </mxCell>
        <mxCell id="9nBHPdEDhlCnkr8sdzN--25" value="DelegarTarefa()" style="html=1;verticalAlign=bottom;endArrow=block;entryX=0;entryY=0;labelBackgroundColor=none;fontFamily=Verdana;fontSize=12;edgeStyle=elbowEdgeStyle;elbow=vertical;" edge="1" parent="1" source="9nBHPdEDhlCnkr8sdzN--2" target="9nBHPdEDhlCnkr8sdzN--4">
          <mxGeometry relative="1" as="geometry">
            <mxPoint x="370" y="200" as="sourcePoint" />
          </mxGeometry>
        </mxCell>
        <mxCell id="9nBHPdEDhlCnkr8sdzN--42" value="NotificacaoModel " style="shape=umlLifeline;perimeter=lifelinePerimeter;whiteSpace=wrap;html=1;container=1;collapsible=0;recursiveResize=0;outlineConnect=0;rounded=1;shadow=0;comic=0;labelBackgroundColor=none;strokeWidth=1;fontFamily=Verdana;fontSize=12;align=center;" vertex="1" parent="1">
          <mxGeometry x="770" y="80" width="110" height="350" as="geometry" />
        </mxCell>
        <mxCell id="9nBHPdEDhlCnkr8sdzN--43" value="" style="html=1;points=[];perimeter=orthogonalPerimeter;rounded=0;shadow=0;comic=0;labelBackgroundColor=none;strokeWidth=1;fontFamily=Verdana;fontSize=12;align=center;" vertex="1" parent="9nBHPdEDhlCnkr8sdzN--42">
          <mxGeometry x="50" y="235" width="10" height="115" as="geometry" />
        </mxCell>
        <mxCell id="9nBHPdEDhlCnkr8sdzN--44" style="edgeStyle=orthogonalEdgeStyle;rounded=0;orthogonalLoop=1;jettySize=auto;html=1;dashed=1;endArrow=open;endFill=0;" edge="1" parent="1" source="9nBHPdEDhlCnkr8sdzN--7" target="9nBHPdEDhlCnkr8sdzN--5">
          <mxGeometry relative="1" as="geometry">
            <Array as="points">
              <mxPoint x="870" y="280" />
              <mxPoint x="870" y="280" />
            </Array>
          </mxGeometry>
        </mxCell>
        <mxCell id="9nBHPdEDhlCnkr8sdzN--45" value="return confirmaçãoInserção" style="edgeLabel;html=1;align=center;verticalAlign=middle;resizable=0;points=[];fontSize=12;" vertex="1" connectable="0" parent="9nBHPdEDhlCnkr8sdzN--44">
          <mxGeometry x="-0.036" y="-1" relative="1" as="geometry">
            <mxPoint y="-9" as="offset" />
          </mxGeometry>
        </mxCell>
        <mxCell id="9nBHPdEDhlCnkr8sdzN--46" style="edgeStyle=orthogonalEdgeStyle;rounded=0;orthogonalLoop=1;jettySize=auto;html=1;" edge="1" parent="1" source="9nBHPdEDhlCnkr8sdzN--19" target="9nBHPdEDhlCnkr8sdzN--43">
          <mxGeometry relative="1" as="geometry">
            <Array as="points">
              <mxPoint x="760" y="330" />
              <mxPoint x="760" y="330" />
            </Array>
          </mxGeometry>
        </mxCell>
        <mxCell id="9nBHPdEDhlCnkr8sdzN--47" value="CriarNotificacao()" style="edgeLabel;html=1;align=center;verticalAlign=middle;resizable=0;points=[];" vertex="1" connectable="0" parent="9nBHPdEDhlCnkr8sdzN--46">
          <mxGeometry x="-0.3097" y="2" relative="1" as="geometry">
            <mxPoint x="15" y="-13" as="offset" />
          </mxGeometry>
        </mxCell>
        <mxCell id="9nBHPdEDhlCnkr8sdzN--48" style="edgeStyle=orthogonalEdgeStyle;rounded=0;orthogonalLoop=1;jettySize=auto;html=1;" edge="1" parent="1" source="9nBHPdEDhlCnkr8sdzN--43" target="9nBHPdEDhlCnkr8sdzN--6">
          <mxGeometry relative="1" as="geometry">
            <Array as="points">
              <mxPoint x="930" y="350" />
              <mxPoint x="930" y="350" />
            </Array>
          </mxGeometry>
        </mxCell>
        <mxCell id="9nBHPdEDhlCnkr8sdzN--49" value="Insert()" style="edgeLabel;html=1;align=center;verticalAlign=middle;resizable=0;points=[];fontSize=12;" vertex="1" connectable="0" parent="9nBHPdEDhlCnkr8sdzN--48">
          <mxGeometry x="-0.023" y="4" relative="1" as="geometry">
            <mxPoint y="-6" as="offset" />
          </mxGeometry>
        </mxCell>
        <mxCell id="9nBHPdEDhlCnkr8sdzN--50" style="edgeStyle=orthogonalEdgeStyle;rounded=0;orthogonalLoop=1;jettySize=auto;html=1;dashed=1;endArrow=open;endFill=0;" edge="1" parent="1" source="9nBHPdEDhlCnkr8sdzN--7" target="9nBHPdEDhlCnkr8sdzN--42">
          <mxGeometry relative="1" as="geometry">
            <Array as="points">
              <mxPoint x="930" y="390" />
              <mxPoint x="930" y="390" />
            </Array>
          </mxGeometry>
        </mxCell>
        <mxCell id="9nBHPdEDhlCnkr8sdzN--51" value="return confirmaçãoNotificação" style="edgeLabel;html=1;align=center;verticalAlign=middle;resizable=0;points=[];fontSize=12;" vertex="1" connectable="0" parent="9nBHPdEDhlCnkr8sdzN--50">
          <mxGeometry x="-0.0177" y="-1" relative="1" as="geometry">
            <mxPoint y="-9" as="offset" />
          </mxGeometry>
        </mxCell>
        <mxCell id="9nBHPdEDhlCnkr8sdzN--52" style="edgeStyle=orthogonalEdgeStyle;rounded=0;orthogonalLoop=1;jettySize=auto;html=1;endArrow=open;endFill=0;dashed=1;" edge="1" parent="1" target="9nBHPdEDhlCnkr8sdzN--5">
          <mxGeometry relative="1" as="geometry">
            <mxPoint x="820.0000000000002" y="424.0000000000001" as="sourcePoint" />
            <mxPoint x="699.6304347826083" y="424.0000000000001" as="targetPoint" />
            <Array as="points">
              <mxPoint x="820" y="425" />
            </Array>
          </mxGeometry>
        </mxCell>
        <mxCell id="9nBHPdEDhlCnkr8sdzN--53" value="return resultadoNotificação" style="edgeLabel;html=1;align=center;verticalAlign=middle;resizable=0;points=[];" vertex="1" connectable="0" parent="9nBHPdEDhlCnkr8sdzN--52">
          <mxGeometry x="0.3064" relative="1" as="geometry">
            <mxPoint x="24" y="-14" as="offset" />
          </mxGeometry>
        </mxCell>
        <mxCell id="9nBHPdEDhlCnkr8sdzN--54" style="edgeStyle=orthogonalEdgeStyle;rounded=0;orthogonalLoop=1;jettySize=auto;html=1;dashed=1;endArrow=open;endFill=0;" edge="1" parent="1" source="9nBHPdEDhlCnkr8sdzN--19" target="9nBHPdEDhlCnkr8sdzN--3">
          <mxGeometry relative="1" as="geometry">
            <Array as="points">
              <mxPoint x="550" y="450" />
              <mxPoint x="550" y="450" />
            </Array>
          </mxGeometry>
        </mxCell>
        <mxCell id="9nBHPdEDhlCnkr8sdzN--55" value="return resultadoInserção" style="edgeLabel;html=1;align=center;verticalAlign=middle;resizable=0;points=[];fontSize=12;" vertex="1" connectable="0" parent="9nBHPdEDhlCnkr8sdzN--54">
          <mxGeometry x="0.0198" y="-7" relative="1" as="geometry">
            <mxPoint y="-3" as="offset" />
          </mxGeometry>
        </mxCell>
        <mxCell id="9nBHPdEDhlCnkr8sdzN--57" style="edgeStyle=orthogonalEdgeStyle;rounded=0;orthogonalLoop=1;jettySize=auto;html=1;dashed=1;endArrow=open;endFill=0;" edge="1" parent="1" source="9nBHPdEDhlCnkr8sdzN--4" target="9nBHPdEDhlCnkr8sdzN--1">
          <mxGeometry relative="1" as="geometry">
            <Array as="points">
              <mxPoint x="350" y="480" />
              <mxPoint x="350" y="480" />
            </Array>
          </mxGeometry>
        </mxCell>
        <mxCell id="9nBHPdEDhlCnkr8sdzN--58" value="return mensagemSucessoErro" style="edgeLabel;html=1;align=center;verticalAlign=middle;resizable=0;points=[];fontSize=12;" vertex="1" connectable="0" parent="9nBHPdEDhlCnkr8sdzN--57">
          <mxGeometry x="-0.2732" y="1" relative="1" as="geometry">
            <mxPoint x="-27" y="-11" as="offset" />
          </mxGeometry>
        </mxCell>
        <mxCell id="9nBHPdEDhlCnkr8sdzN--59" style="edgeStyle=orthogonalEdgeStyle;rounded=0;orthogonalLoop=1;jettySize=auto;html=1;dashed=1;endArrow=open;endFill=0;" edge="1" parent="1" source="9nBHPdEDhlCnkr8sdzN--2" target="9nBHPdEDhlCnkr8sdzN--9">
          <mxGeometry relative="1" as="geometry">
            <Array as="points">
              <mxPoint x="170" y="500" />
              <mxPoint x="170" y="500" />
            </Array>
          </mxGeometry>
        </mxCell>
        <mxCell id="9nBHPdEDhlCnkr8sdzN--60" value="ShowMensage" style="edgeLabel;html=1;align=center;verticalAlign=middle;resizable=0;points=[];fontSize=12;" vertex="1" connectable="0" parent="9nBHPdEDhlCnkr8sdzN--59">
          <mxGeometry x="-0.1556" y="-4" relative="1" as="geometry">
            <mxPoint x="-16" y="-6" as="offset" />
          </mxGeometry>
        </mxCell>
      </root>
    </mxGraphModel>
  </diagram>
</mxfile>
